<mxfile host="app.diagrams.net" modified="2022-01-18T14:14:34.159Z" agent="5.0 (Macintosh; Intel Mac OS X 10_15_7) AppleWebKit/537.36 (KHTML, like Gecko) Chrome/96.0.4664.55 Safari/537.36" etag="QGI_QjhJjb-TIMFDx3e9" version="15.9.4" type="github" pages="2">
  <diagram id="4iBBe8WfqcsM1V_60n8h" name="Page-1">
    <mxGraphModel dx="953" dy="589" grid="1" gridSize="10" guides="1" tooltips="1" connect="1" arrows="1" fold="1" page="1" pageScale="1" pageWidth="827" pageHeight="1169" math="0" shadow="0">
      <root>
        <mxCell id="0" />
        <mxCell id="1" parent="0" />
        <mxCell id="6lAZF2rAm7_nJLwYGaTM-12" style="edgeStyle=orthogonalEdgeStyle;rounded=0;orthogonalLoop=1;jettySize=auto;html=1;exitX=0.5;exitY=1;exitDx=0;exitDy=0;entryX=0;entryY=0.5;entryDx=0;entryDy=0;" edge="1" parent="1" source="6lAZF2rAm7_nJLwYGaTM-1" target="6lAZF2rAm7_nJLwYGaTM-2">
          <mxGeometry relative="1" as="geometry" />
        </mxCell>
        <mxCell id="6lAZF2rAm7_nJLwYGaTM-13" style="edgeStyle=orthogonalEdgeStyle;rounded=0;orthogonalLoop=1;jettySize=auto;html=1;exitX=1;exitY=0.5;exitDx=0;exitDy=0;entryX=0;entryY=0.5;entryDx=0;entryDy=0;" edge="1" parent="1" source="6lAZF2rAm7_nJLwYGaTM-1" target="6lAZF2rAm7_nJLwYGaTM-6">
          <mxGeometry relative="1" as="geometry" />
        </mxCell>
        <mxCell id="6lAZF2rAm7_nJLwYGaTM-14" style="edgeStyle=orthogonalEdgeStyle;rounded=0;orthogonalLoop=1;jettySize=auto;html=1;exitX=0.75;exitY=1;exitDx=0;exitDy=0;entryX=0.25;entryY=0;entryDx=0;entryDy=0;" edge="1" parent="1" source="6lAZF2rAm7_nJLwYGaTM-1" target="6lAZF2rAm7_nJLwYGaTM-8">
          <mxGeometry relative="1" as="geometry" />
        </mxCell>
        <mxCell id="6lAZF2rAm7_nJLwYGaTM-15" style="edgeStyle=orthogonalEdgeStyle;rounded=0;orthogonalLoop=1;jettySize=auto;html=1;exitX=1;exitY=0.75;exitDx=0;exitDy=0;entryX=0.5;entryY=0;entryDx=0;entryDy=0;" edge="1" parent="1" source="6lAZF2rAm7_nJLwYGaTM-1" target="6lAZF2rAm7_nJLwYGaTM-7">
          <mxGeometry relative="1" as="geometry" />
        </mxCell>
        <mxCell id="6lAZF2rAm7_nJLwYGaTM-1" value="index/timer" style="whiteSpace=wrap;html=1;aspect=fixed;" vertex="1" parent="1">
          <mxGeometry x="40" y="80" width="80" height="80" as="geometry" />
        </mxCell>
        <mxCell id="6lAZF2rAm7_nJLwYGaTM-2" value="tasks" style="whiteSpace=wrap;html=1;aspect=fixed;" vertex="1" parent="1">
          <mxGeometry x="40" y="240" width="80" height="80" as="geometry" />
        </mxCell>
        <mxCell id="6lAZF2rAm7_nJLwYGaTM-3" value="tasks/[id]" style="whiteSpace=wrap;html=1;aspect=fixed;" vertex="1" parent="1">
          <mxGeometry x="40" y="320" width="80" height="80" as="geometry" />
        </mxCell>
        <mxCell id="6lAZF2rAm7_nJLwYGaTM-4" value="tasks/[id]/edit" style="whiteSpace=wrap;html=1;aspect=fixed;" vertex="1" parent="1">
          <mxGeometry x="40" y="400" width="80" height="80" as="geometry" />
        </mxCell>
        <mxCell id="6lAZF2rAm7_nJLwYGaTM-5" value="tasks/delete" style="whiteSpace=wrap;html=1;aspect=fixed;" vertex="1" parent="1">
          <mxGeometry x="40" y="480" width="80" height="80" as="geometry" />
        </mxCell>
        <mxCell id="6lAZF2rAm7_nJLwYGaTM-6" value="profile" style="whiteSpace=wrap;html=1;aspect=fixed;" vertex="1" parent="1">
          <mxGeometry x="600" y="80" width="80" height="80" as="geometry" />
        </mxCell>
        <mxCell id="6lAZF2rAm7_nJLwYGaTM-7" value="timeline" style="whiteSpace=wrap;html=1;aspect=fixed;" vertex="1" parent="1">
          <mxGeometry x="360" y="240" width="80" height="80" as="geometry" />
        </mxCell>
        <mxCell id="6lAZF2rAm7_nJLwYGaTM-8" value="tweet" style="whiteSpace=wrap;html=1;aspect=fixed;" vertex="1" parent="1">
          <mxGeometry x="200" y="240" width="80" height="80" as="geometry" />
        </mxCell>
        <mxCell id="6lAZF2rAm7_nJLwYGaTM-16" value="signin/signup" style="rounded=0;whiteSpace=wrap;html=1;" vertex="1" parent="1">
          <mxGeometry x="120" y="80" width="120" height="40" as="geometry" />
        </mxCell>
      </root>
    </mxGraphModel>
  </diagram>
  <diagram id="y-mIVbwdvB6rPGCOUPJJ" name="Page-2">
    <mxGraphModel dx="1689" dy="1758" grid="1" gridSize="10" guides="1" tooltips="1" connect="0" arrows="0" fold="1" page="1" pageScale="1" pageWidth="827" pageHeight="1169" math="0" shadow="0">
      <root>
        <mxCell id="velXcS6_VG1nVzbx7mFF-0" />
        <mxCell id="velXcS6_VG1nVzbx7mFF-1" parent="velXcS6_VG1nVzbx7mFF-0" />
        <mxCell id="velXcS6_VG1nVzbx7mFF-2" value="&lt;div style=&quot;text-align: right&quot;&gt;&lt;b&gt;　　　　　Timer&lt;/b&gt;&lt;/div&gt;id&lt;br&gt;createdAt&lt;br&gt;&lt;div&gt;&amp;nbsp;updatedAt&lt;/div&gt;title&lt;br&gt;status" style="whiteSpace=wrap;html=1;aspect=fixed;align=left;" vertex="1" parent="velXcS6_VG1nVzbx7mFF-1">
          <mxGeometry x="-60" y="-20" width="210" height="210" as="geometry" />
        </mxCell>
        <mxCell id="velXcS6_VG1nVzbx7mFF-3" value="&lt;b&gt;Task&lt;/b&gt;&lt;br&gt;&lt;div style=&quot;text-align: left&quot;&gt;&lt;span&gt;id&lt;/span&gt;&lt;/div&gt;&lt;div style=&quot;text-align: left&quot;&gt;&lt;span&gt;createdAt&lt;/span&gt;&lt;/div&gt;&lt;div style=&quot;text-align: left&quot;&gt;&amp;nbsp;updatedAt&lt;/div&gt;&lt;div style=&quot;text-align: left&quot;&gt;&lt;span&gt;title&lt;/span&gt;&lt;/div&gt;&lt;div style=&quot;text-align: left&quot;&gt;&lt;span&gt;heart&lt;/span&gt;&lt;/div&gt;&lt;div style=&quot;text-align: left&quot;&gt;&lt;span&gt;concentration_time&lt;/span&gt;&lt;/div&gt;" style="whiteSpace=wrap;html=1;aspect=fixed;" vertex="1" parent="velXcS6_VG1nVzbx7mFF-1">
          <mxGeometry x="240" y="-20" width="210" height="210" as="geometry" />
        </mxCell>
        <mxCell id="velXcS6_VG1nVzbx7mFF-4" value="&lt;div style=&quot;text-align: right&quot;&gt;&lt;b&gt;　　　　Tweet&lt;/b&gt;&lt;/div&gt;&lt;div style=&quot;text-align: right&quot;&gt;&lt;b&gt;&lt;br&gt;&lt;/b&gt;&lt;/div&gt;id&lt;br&gt;&lt;div&gt;&amp;nbsp; createdAt&lt;/div&gt;&lt;div&gt;&amp;nbsp; updatedAt&lt;/div&gt;title&lt;br&gt;like&lt;br&gt;comment&lt;br&gt;emotions" style="whiteSpace=wrap;html=1;aspect=fixed;align=left;" vertex="1" parent="velXcS6_VG1nVzbx7mFF-1">
          <mxGeometry x="650" y="360" width="220" height="220" as="geometry" />
        </mxCell>
        <mxCell id="velXcS6_VG1nVzbx7mFF-5" value="&lt;div style=&quot;text-align: right&quot;&gt;&lt;b&gt;User&lt;/b&gt;&lt;/div&gt;&lt;div&gt;&lt;span&gt;id&lt;/span&gt;&lt;/div&gt;&lt;div&gt;&lt;span&gt;name&lt;/span&gt;&lt;/div&gt;&lt;div&gt;&lt;span&gt;email&lt;/span&gt;&lt;/div&gt;&lt;div&gt;&lt;span&gt;createdAt&lt;/span&gt;&lt;/div&gt;&lt;div&gt;&lt;span&gt;updatedAt&lt;/span&gt;&lt;span&gt;　&lt;/span&gt;&lt;/div&gt;&lt;div&gt;&lt;span&gt;role&lt;/span&gt;&lt;/div&gt;&lt;div&gt;&lt;span&gt;hashedPassword&lt;/span&gt;&lt;/div&gt;&lt;div&gt;&lt;div&gt;concentration_time_total&lt;/div&gt;&lt;div&gt;heart&lt;/div&gt;&lt;div&gt;public_domain&lt;/div&gt;&lt;/div&gt;&lt;div&gt;icon&lt;br&gt;&lt;/div&gt;&lt;div&gt;&lt;br&gt;&lt;/div&gt;&lt;div&gt;&lt;span&gt;tokens&amp;nbsp;&lt;/span&gt;&lt;/div&gt;&lt;div&gt;&lt;span&gt;sessions&lt;/span&gt;&lt;/div&gt;&lt;div&gt;&lt;span&gt;emotion&lt;/span&gt;&lt;/div&gt;&lt;div&gt;&lt;span&gt;tweet&lt;/span&gt;&lt;/div&gt;&lt;div&gt;&lt;span&gt;tweetLike&lt;/span&gt;&lt;/div&gt;&lt;div&gt;&lt;br&gt;&lt;/div&gt;" style="whiteSpace=wrap;html=1;aspect=fixed;align=left;" vertex="1" parent="velXcS6_VG1nVzbx7mFF-1">
          <mxGeometry x="-170" y="370" width="480" height="480" as="geometry" />
        </mxCell>
        <mxCell id="velXcS6_VG1nVzbx7mFF-6" value="&lt;div&gt;&lt;b&gt;　　　　　　　　　　　　　　　　Session&amp;nbsp;&lt;/b&gt;&lt;/div&gt;&lt;div&gt;&amp;nbsp; id　　　　　　　　　　　　Int&amp;nbsp; &amp;nbsp; &amp;nbsp; @id @default(autoincrement())&lt;/div&gt;&lt;div&gt;&amp;nbsp; createdAt　　　　　　　　DateTime @default(now())&lt;/div&gt;&lt;div&gt;&amp;nbsp; updatedAt　　　　　　　　DateTime @updatedAt&lt;/div&gt;&lt;div&gt;&amp;nbsp; expiresAt&amp;nbsp; &amp;nbsp; &amp;nbsp; &amp;nbsp; &amp;nbsp; &amp;nbsp; &amp;nbsp; &amp;nbsp; &amp;nbsp; &amp;nbsp; &amp;nbsp; &amp;nbsp; &amp;nbsp; &amp;nbsp; &amp;nbsp;&amp;nbsp;DateTime?&lt;/div&gt;&lt;div&gt;&amp;nbsp; handle&amp;nbsp; &amp;nbsp; &amp;nbsp; &amp;nbsp; &amp;nbsp; &amp;nbsp; &amp;nbsp; &amp;nbsp; &amp;nbsp; &amp;nbsp; &amp;nbsp; &amp;nbsp; &amp;nbsp; &amp;nbsp; &amp;nbsp; &amp;nbsp; &amp;nbsp;&amp;nbsp;String&amp;nbsp; &amp;nbsp; @unique&lt;/div&gt;&lt;div&gt;&amp;nbsp; hashedSessionToken&amp;nbsp; &amp;nbsp; &amp;nbsp; &amp;nbsp; &amp;nbsp; &amp;nbsp;String?&lt;/div&gt;&lt;div&gt;&amp;nbsp; antiCSRFToken&amp;nbsp; &amp;nbsp; &amp;nbsp; &amp;nbsp; &amp;nbsp; &amp;nbsp; &amp;nbsp; &amp;nbsp; &amp;nbsp; &amp;nbsp;&amp;nbsp;String?&lt;/div&gt;&lt;div&gt;&amp;nbsp; publicData&amp;nbsp; &amp;nbsp; &amp;nbsp; &amp;nbsp; &amp;nbsp; &amp;nbsp; &amp;nbsp; &amp;nbsp; &amp;nbsp; &amp;nbsp; &amp;nbsp; &amp;nbsp; &amp;nbsp; &amp;nbsp; &amp;nbsp;String?&lt;/div&gt;&lt;div&gt;&amp;nbsp; privateData&amp;nbsp; &amp;nbsp; &amp;nbsp; &amp;nbsp; &amp;nbsp; &amp;nbsp; &amp;nbsp; &amp;nbsp; &amp;nbsp; &amp;nbsp; &amp;nbsp; &amp;nbsp; &amp;nbsp; &amp;nbsp;String?&lt;/div&gt;&lt;div&gt;&lt;br&gt;&lt;/div&gt;&lt;div&gt;&amp;nbsp; user&amp;nbsp; &amp;nbsp; &amp;nbsp; &amp;nbsp; &amp;nbsp; &amp;nbsp; &amp;nbsp; &amp;nbsp; &amp;nbsp; &amp;nbsp; &amp;nbsp; &amp;nbsp; &amp;nbsp; &amp;nbsp; &amp;nbsp; &amp;nbsp; &amp;nbsp; User? @relation(fields: [userId], references: [id])&lt;/div&gt;&lt;div&gt;&amp;nbsp; userId&amp;nbsp; &amp;nbsp; &amp;nbsp; &amp;nbsp; &amp;nbsp; &amp;nbsp; &amp;nbsp; &amp;nbsp; &amp;nbsp; &amp;nbsp; &amp;nbsp; &amp;nbsp; &amp;nbsp; &amp;nbsp; &amp;nbsp; &amp;nbsp;Int?&lt;/div&gt;&lt;div&gt;&lt;br&gt;&lt;/div&gt;" style="whiteSpace=wrap;html=1;aspect=fixed;align=left;" vertex="1" parent="velXcS6_VG1nVzbx7mFF-1">
          <mxGeometry x="-320" y="930" width="430" height="430" as="geometry" />
        </mxCell>
        <mxCell id="velXcS6_VG1nVzbx7mFF-7" value="&lt;div style=&quot;text-align: left&quot;&gt;&lt;br&gt;&lt;/div&gt;" style="whiteSpace=wrap;html=1;aspect=fixed;" vertex="1" parent="velXcS6_VG1nVzbx7mFF-1">
          <mxGeometry x="640" y="40" width="230" height="230" as="geometry" />
        </mxCell>
        <mxCell id="velXcS6_VG1nVzbx7mFF-8" value="&lt;div&gt;&lt;b&gt;　　　　　　　　　Token&lt;/b&gt;&lt;/div&gt;&lt;div&gt;&amp;nbsp;&amp;nbsp;&lt;/div&gt;&lt;div&gt;id&lt;/div&gt;&lt;div&gt;&amp;nbsp; createdAt&lt;/div&gt;&lt;div&gt;&amp;nbsp; updatedAt&lt;/div&gt;&lt;div&gt;&amp;nbsp; hashedToken&lt;/div&gt;&lt;div&gt;&amp;nbsp; type&lt;/div&gt;&lt;div&gt;&lt;br&gt;&lt;/div&gt;&lt;div&gt;&amp;nbsp; expiresAt&lt;/div&gt;&lt;div&gt;&amp;nbsp; sentTo&lt;/div&gt;&lt;div&gt;&lt;br&gt;&lt;/div&gt;&lt;div&gt;&amp;nbsp; user&lt;/div&gt;&lt;div&gt;&amp;nbsp; userId&amp;nbsp; &amp;nbsp; &amp;nbsp; &amp;nbsp;Int&lt;/div&gt;&lt;div&gt;&lt;br&gt;&lt;/div&gt;&lt;div&gt;&amp;nbsp; @@unique([hashedToken, type])&lt;/div&gt;&lt;div&gt;&lt;br&gt;&lt;/div&gt;" style="whiteSpace=wrap;html=1;aspect=fixed;align=left;" vertex="1" parent="velXcS6_VG1nVzbx7mFF-1">
          <mxGeometry x="340" y="900" width="330" height="330" as="geometry" />
        </mxCell>
        <mxCell id="velXcS6_VG1nVzbx7mFF-9" value="&lt;div style=&quot;text-align: right&quot;&gt;&lt;b&gt;　　　　　TweetLike&lt;/b&gt;&lt;/div&gt;&lt;div&gt;&amp;nbsp; id&lt;/div&gt;&lt;div&gt;&amp;nbsp; createdAt&lt;/div&gt;&lt;div&gt;&amp;nbsp; updatedAt&lt;/div&gt;&lt;div&gt;&amp;nbsp; user&lt;/div&gt;&lt;div&gt;&amp;nbsp; userId&amp;nbsp; &amp;nbsp; Int&lt;/div&gt;&lt;div&gt;tweet&lt;/div&gt;&lt;div&gt;tweetId&lt;/div&gt;" style="whiteSpace=wrap;html=1;aspect=fixed;align=left;" vertex="1" parent="velXcS6_VG1nVzbx7mFF-1">
          <mxGeometry x="690" y="640" width="280" height="280" as="geometry" />
        </mxCell>
        <mxCell id="velXcS6_VG1nVzbx7mFF-18" value="" style="endArrow=none;html=1;rounded=0;exitX=0.5;exitY=0;exitDx=0;exitDy=0;entryX=0.5;entryY=1;entryDx=0;entryDy=0;startArrow=none;" edge="1" parent="velXcS6_VG1nVzbx7mFF-1" source="velXcS6_VG1nVzbx7mFF-44" target="velXcS6_VG1nVzbx7mFF-5">
          <mxGeometry width="50" height="50" relative="1" as="geometry">
            <mxPoint x="130" y="690" as="sourcePoint" />
            <mxPoint x="180" y="640" as="targetPoint" />
          </mxGeometry>
        </mxCell>
        <mxCell id="velXcS6_VG1nVzbx7mFF-20" value="" style="endArrow=none;html=1;rounded=0;" edge="1" parent="velXcS6_VG1nVzbx7mFF-1">
          <mxGeometry width="50" height="50" relative="1" as="geometry">
            <mxPoint x="520" y="700" as="sourcePoint" />
            <mxPoint x="290" y="700" as="targetPoint" />
          </mxGeometry>
        </mxCell>
        <mxCell id="velXcS6_VG1nVzbx7mFF-21" value="" style="endArrow=none;html=1;rounded=0;exitX=0.542;exitY=-0.006;exitDx=0;exitDy=0;exitPerimeter=0;" edge="1" parent="velXcS6_VG1nVzbx7mFF-1" source="velXcS6_VG1nVzbx7mFF-8">
          <mxGeometry width="50" height="50" relative="1" as="geometry">
            <mxPoint x="520" y="760" as="sourcePoint" />
            <mxPoint x="520" y="700" as="targetPoint" />
          </mxGeometry>
        </mxCell>
        <mxCell id="velXcS6_VG1nVzbx7mFF-25" value="" style="ellipse;whiteSpace=wrap;html=1;aspect=fixed;gradientColor=none;fillColor=#000000;" vertex="1" parent="velXcS6_VG1nVzbx7mFF-1">
          <mxGeometry x="300" y="440" width="15" height="15" as="geometry" />
        </mxCell>
        <mxCell id="velXcS6_VG1nVzbx7mFF-35" value="" style="endArrow=none;html=1;rounded=0;entryX=0;entryY=0.621;entryDx=0;entryDy=0;entryPerimeter=0;" edge="1" parent="velXcS6_VG1nVzbx7mFF-1" source="velXcS6_VG1nVzbx7mFF-25" target="velXcS6_VG1nVzbx7mFF-4">
          <mxGeometry width="50" height="50" relative="1" as="geometry">
            <mxPoint x="390" y="450" as="sourcePoint" />
            <mxPoint x="440" y="400" as="targetPoint" />
          </mxGeometry>
        </mxCell>
        <mxCell id="velXcS6_VG1nVzbx7mFF-36" value="" style="ellipse;whiteSpace=wrap;html=1;aspect=fixed;gradientColor=none;fillColor=#000000;" vertex="1" parent="velXcS6_VG1nVzbx7mFF-1">
          <mxGeometry x="260" y="360" width="15" height="15" as="geometry" />
        </mxCell>
        <mxCell id="velXcS6_VG1nVzbx7mFF-37" value="" style="endArrow=none;html=1;rounded=0;entryX=0.209;entryY=1;entryDx=0;entryDy=0;entryPerimeter=0;" edge="1" parent="velXcS6_VG1nVzbx7mFF-1" target="velXcS6_VG1nVzbx7mFF-3">
          <mxGeometry width="50" height="50" relative="1" as="geometry">
            <mxPoint x="265" y="360" as="sourcePoint" />
            <mxPoint x="315" y="310" as="targetPoint" />
          </mxGeometry>
        </mxCell>
        <mxCell id="velXcS6_VG1nVzbx7mFF-38" value="" style="ellipse;whiteSpace=wrap;html=1;aspect=fixed;gradientColor=none;fillColor=#000000;" vertex="1" parent="velXcS6_VG1nVzbx7mFF-1">
          <mxGeometry x="110" y="360" width="15" height="15" as="geometry" />
        </mxCell>
        <mxCell id="velXcS6_VG1nVzbx7mFF-39" value="" style="endArrow=none;html=1;rounded=0;entryX=0.209;entryY=1;entryDx=0;entryDy=0;entryPerimeter=0;" edge="1" parent="velXcS6_VG1nVzbx7mFF-1">
          <mxGeometry width="50" height="50" relative="1" as="geometry">
            <mxPoint x="115" y="360" as="sourcePoint" />
            <mxPoint x="112.99000000000001" y="190" as="targetPoint" />
          </mxGeometry>
        </mxCell>
        <mxCell id="velXcS6_VG1nVzbx7mFF-24" value="" style="ellipse;whiteSpace=wrap;html=1;aspect=fixed;gradientColor=none;fillColor=#000000;" vertex="1" parent="velXcS6_VG1nVzbx7mFF-1">
          <mxGeometry x="300" y="525" width="15" height="15" as="geometry" />
        </mxCell>
        <mxCell id="velXcS6_VG1nVzbx7mFF-42" value="" style="edgeStyle=orthogonalEdgeStyle;rounded=0;orthogonalLoop=1;jettySize=auto;html=1;exitX=0;exitY=0.5;exitDx=0;exitDy=0;entryX=1.004;entryY=0.619;entryDx=0;entryDy=0;entryPerimeter=0;endArrow=none;" edge="1" parent="velXcS6_VG1nVzbx7mFF-1" source="velXcS6_VG1nVzbx7mFF-9" target="velXcS6_VG1nVzbx7mFF-24">
          <mxGeometry relative="1" as="geometry">
            <mxPoint x="650" y="615" as="sourcePoint" />
            <mxPoint x="311.0799999999999" y="537.1300000000001" as="targetPoint" />
            <Array as="points">
              <mxPoint x="360" y="615" />
              <mxPoint x="360" y="537" />
            </Array>
          </mxGeometry>
        </mxCell>
        <mxCell id="velXcS6_VG1nVzbx7mFF-44" value="" style="ellipse;whiteSpace=wrap;html=1;aspect=fixed;gradientColor=none;fillColor=#000000;" vertex="1" parent="velXcS6_VG1nVzbx7mFF-1">
          <mxGeometry x="62.5" y="840" width="15" height="15" as="geometry" />
        </mxCell>
        <mxCell id="velXcS6_VG1nVzbx7mFF-45" value="" style="endArrow=none;html=1;rounded=0;exitX=0.5;exitY=0;exitDx=0;exitDy=0;entryX=0.5;entryY=1;entryDx=0;entryDy=0;" edge="1" parent="velXcS6_VG1nVzbx7mFF-1" source="velXcS6_VG1nVzbx7mFF-6" target="velXcS6_VG1nVzbx7mFF-44">
          <mxGeometry width="50" height="50" relative="1" as="geometry">
            <mxPoint x="175" y="760" as="sourcePoint" />
            <mxPoint x="175" y="640" as="targetPoint" />
          </mxGeometry>
        </mxCell>
        <mxCell id="velXcS6_VG1nVzbx7mFF-43" value="" style="ellipse;whiteSpace=wrap;html=1;aspect=fixed;gradientColor=none;fillColor=#000000;" vertex="1" parent="velXcS6_VG1nVzbx7mFF-1">
          <mxGeometry x="300" y="690" width="15" height="15" as="geometry" />
        </mxCell>
        <mxCell id="velXcS6_VG1nVzbx7mFF-46" value="" style="endArrow=none;html=1;rounded=0;entryX=0.5;entryY=1;entryDx=0;entryDy=0;" edge="1" parent="velXcS6_VG1nVzbx7mFF-1" target="velXcS6_VG1nVzbx7mFF-43">
          <mxGeometry width="50" height="50" relative="1" as="geometry">
            <mxPoint x="290" y="700" as="sourcePoint" />
            <mxPoint x="290" y="640" as="targetPoint" />
          </mxGeometry>
        </mxCell>
        <mxCell id="velXcS6_VG1nVzbx7mFF-48" value="" style="endArrow=none;html=1;rounded=0;entryX=0.507;entryY=1.021;entryDx=0;entryDy=0;entryPerimeter=0;startArrow=none;" edge="1" parent="velXcS6_VG1nVzbx7mFF-1" source="velXcS6_VG1nVzbx7mFF-47" target="velXcS6_VG1nVzbx7mFF-4">
          <mxGeometry width="50" height="50" relative="1" as="geometry">
            <mxPoint x="720" y="560" as="sourcePoint" />
            <mxPoint x="770" y="510" as="targetPoint" />
            <Array as="points" />
          </mxGeometry>
        </mxCell>
        <mxCell id="velXcS6_VG1nVzbx7mFF-47" value="" style="ellipse;whiteSpace=wrap;html=1;aspect=fixed;gradientColor=none;fillColor=#000000;" vertex="1" parent="velXcS6_VG1nVzbx7mFF-1">
          <mxGeometry x="737.5" y="543" width="15" height="15" as="geometry" />
        </mxCell>
        <mxCell id="velXcS6_VG1nVzbx7mFF-49" value="" style="endArrow=none;html=1;rounded=0;entryX=0.507;entryY=1.021;entryDx=0;entryDy=0;entryPerimeter=0;exitX=0.153;exitY=-0.021;exitDx=0;exitDy=0;exitPerimeter=0;" edge="1" parent="velXcS6_VG1nVzbx7mFF-1" source="velXcS6_VG1nVzbx7mFF-9" target="velXcS6_VG1nVzbx7mFF-47">
          <mxGeometry width="50" height="50" relative="1" as="geometry">
            <mxPoint x="720" y="560" as="sourcePoint" />
            <mxPoint x="720.98" y="502.94000000000005" as="targetPoint" />
            <Array as="points" />
          </mxGeometry>
        </mxCell>
        <mxCell id="velXcS6_VG1nVzbx7mFF-50" value="" style="ellipse;whiteSpace=wrap;html=1;aspect=fixed;gradientColor=none;fillColor=#000000;" vertex="1" parent="velXcS6_VG1nVzbx7mFF-1">
          <mxGeometry x="712.5" y="345" width="15" height="15" as="geometry" />
        </mxCell>
        <mxCell id="velXcS6_VG1nVzbx7mFF-51" value="" style="endArrow=none;html=1;rounded=0;exitX=0.5;exitY=0;exitDx=0;exitDy=0;exitPerimeter=0;" edge="1" parent="velXcS6_VG1nVzbx7mFF-1" source="velXcS6_VG1nVzbx7mFF-50">
          <mxGeometry width="50" height="50" relative="1" as="geometry">
            <mxPoint x="720" y="340" as="sourcePoint" />
            <mxPoint x="720" y="270" as="targetPoint" />
          </mxGeometry>
        </mxCell>
        <mxCell id="velXcS6_VG1nVzbx7mFF-52" value="" style="endArrow=none;html=1;rounded=0;" edge="1" parent="velXcS6_VG1nVzbx7mFF-1">
          <mxGeometry width="50" height="50" relative="1" as="geometry">
            <mxPoint x="480" y="180" as="sourcePoint" />
            <mxPoint x="645" y="180" as="targetPoint" />
          </mxGeometry>
        </mxCell>
        <mxCell id="velXcS6_VG1nVzbx7mFF-53" value="" style="endArrow=none;html=1;rounded=0;" edge="1" parent="velXcS6_VG1nVzbx7mFF-1">
          <mxGeometry width="50" height="50" relative="1" as="geometry">
            <mxPoint x="480" y="400" as="sourcePoint" />
            <mxPoint x="480" y="180" as="targetPoint" />
          </mxGeometry>
        </mxCell>
        <mxCell id="velXcS6_VG1nVzbx7mFF-54" value="" style="endArrow=none;html=1;rounded=0;startArrow=none;" edge="1" parent="velXcS6_VG1nVzbx7mFF-1">
          <mxGeometry width="50" height="50" relative="1" as="geometry">
            <mxPoint x="310" y="400" as="sourcePoint" />
            <mxPoint x="480" y="400" as="targetPoint" />
          </mxGeometry>
        </mxCell>
        <mxCell id="velXcS6_VG1nVzbx7mFF-55" value="" style="ellipse;whiteSpace=wrap;html=1;aspect=fixed;gradientColor=none;fillColor=#000000;" vertex="1" parent="velXcS6_VG1nVzbx7mFF-1">
          <mxGeometry x="300" y="390" width="15" height="15" as="geometry" />
        </mxCell>
        <mxCell id="velXcS6_VG1nVzbx7mFF-56" value="" style="endArrow=none;html=1;rounded=0;exitX=1.004;exitY=0.111;exitDx=0;exitDy=0;exitPerimeter=0;" edge="1" parent="velXcS6_VG1nVzbx7mFF-1" source="velXcS6_VG1nVzbx7mFF-5" target="velXcS6_VG1nVzbx7mFF-55">
          <mxGeometry width="50" height="50" relative="1" as="geometry">
            <mxPoint x="311.0799999999999" y="399.97" as="sourcePoint" />
            <mxPoint x="480" y="400" as="targetPoint" />
          </mxGeometry>
        </mxCell>
        <mxCell id="velXcS6_VG1nVzbx7mFF-68" value="Token[]&lt;span&gt;&lt;br&gt;&lt;/span&gt;" style="text;html=1;strokeColor=none;fillColor=none;align=center;verticalAlign=middle;whiteSpace=wrap;rounded=0;" vertex="1" parent="velXcS6_VG1nVzbx7mFF-1">
          <mxGeometry x="-110" y="660" width="180" height="17" as="geometry" />
        </mxCell>
        <mxCell id="velXcS6_VG1nVzbx7mFF-69" value="Session[]&lt;span&gt;&lt;br&gt;&lt;/span&gt;" style="text;html=1;strokeColor=none;fillColor=none;align=center;verticalAlign=middle;whiteSpace=wrap;rounded=0;" vertex="1" parent="velXcS6_VG1nVzbx7mFF-1">
          <mxGeometry x="-110" y="673" width="180" height="17" as="geometry" />
        </mxCell>
        <mxCell id="velXcS6_VG1nVzbx7mFF-70" value="" style="group" vertex="1" connectable="0" parent="velXcS6_VG1nVzbx7mFF-1">
          <mxGeometry x="-40" y="490" width="250" height="107" as="geometry" />
        </mxCell>
        <mxCell id="velXcS6_VG1nVzbx7mFF-60" value="@id @default(autoincrement())&lt;span&gt;&lt;br&gt;&lt;/span&gt;" style="text;html=1;strokeColor=none;fillColor=none;align=center;verticalAlign=middle;whiteSpace=wrap;rounded=0;" vertex="1" parent="velXcS6_VG1nVzbx7mFF-70">
          <mxGeometry x="10" width="180" height="17" as="geometry" />
        </mxCell>
        <mxCell id="velXcS6_VG1nVzbx7mFF-61" value="String?&lt;span&gt;&lt;br&gt;&lt;/span&gt;" style="text;html=1;strokeColor=none;fillColor=none;align=center;verticalAlign=middle;whiteSpace=wrap;rounded=0;" vertex="1" parent="velXcS6_VG1nVzbx7mFF-70">
          <mxGeometry y="28" width="180" height="17" as="geometry" />
        </mxCell>
        <mxCell id="velXcS6_VG1nVzbx7mFF-62" value="String&amp;nbsp; &amp;nbsp;@unique&lt;span&gt;&lt;br&gt;&lt;/span&gt;" style="text;html=1;strokeColor=none;fillColor=none;align=center;verticalAlign=middle;whiteSpace=wrap;rounded=0;" vertex="1" parent="velXcS6_VG1nVzbx7mFF-70">
          <mxGeometry x="10" y="11" width="180" height="17" as="geometry" />
        </mxCell>
        <mxCell id="velXcS6_VG1nVzbx7mFF-63" value="DateTime @default(now())&lt;span&gt;&lt;br&gt;&lt;/span&gt;" style="text;html=1;strokeColor=none;fillColor=none;align=center;verticalAlign=middle;whiteSpace=wrap;rounded=0;" vertex="1" parent="velXcS6_VG1nVzbx7mFF-70">
          <mxGeometry x="30" y="45" width="180" height="17" as="geometry" />
        </mxCell>
        <mxCell id="velXcS6_VG1nVzbx7mFF-64" value="DateTime @updatedAt&lt;span&gt;&lt;br&gt;&lt;/span&gt;" style="text;html=1;strokeColor=none;fillColor=none;align=center;verticalAlign=middle;whiteSpace=wrap;rounded=0;" vertex="1" parent="velXcS6_VG1nVzbx7mFF-70">
          <mxGeometry x="20" y="56" width="180" height="17" as="geometry" />
        </mxCell>
        <mxCell id="velXcS6_VG1nVzbx7mFF-65" value="String&amp;nbsp; &amp;nbsp;@default(&quot;USER&quot;)&lt;span&gt;&lt;br&gt;&lt;/span&gt;" style="text;html=1;strokeColor=none;fillColor=none;align=center;verticalAlign=middle;whiteSpace=wrap;rounded=0;" vertex="1" parent="velXcS6_VG1nVzbx7mFF-70">
          <mxGeometry x="30" y="73" width="180" height="17" as="geometry" />
        </mxCell>
        <mxCell id="velXcS6_VG1nVzbx7mFF-66" value="String?&lt;span&gt;&lt;br&gt;&lt;/span&gt;" style="text;html=1;strokeColor=none;fillColor=none;align=center;verticalAlign=middle;whiteSpace=wrap;rounded=0;" vertex="1" parent="velXcS6_VG1nVzbx7mFF-70">
          <mxGeometry x="20" y="86" width="180" height="17" as="geometry" />
        </mxCell>
        <mxCell id="velXcS6_VG1nVzbx7mFF-71" value="Emotion[]&lt;span&gt;&lt;br&gt;&lt;/span&gt;" style="text;html=1;strokeColor=none;fillColor=none;align=center;verticalAlign=middle;whiteSpace=wrap;rounded=0;" vertex="1" parent="velXcS6_VG1nVzbx7mFF-1">
          <mxGeometry x="-110" y="688" width="180" height="17" as="geometry" />
        </mxCell>
        <mxCell id="velXcS6_VG1nVzbx7mFF-72" value="Tweet[]&lt;span&gt;&lt;br&gt;&lt;/span&gt;" style="text;html=1;strokeColor=none;fillColor=none;align=center;verticalAlign=middle;whiteSpace=wrap;rounded=0;" vertex="1" parent="velXcS6_VG1nVzbx7mFF-1">
          <mxGeometry x="-110" y="705" width="180" height="17" as="geometry" />
        </mxCell>
        <mxCell id="velXcS6_VG1nVzbx7mFF-73" value="TweetLike[]&lt;span&gt;&lt;br&gt;&lt;/span&gt;" style="text;html=1;strokeColor=none;fillColor=none;align=center;verticalAlign=middle;whiteSpace=wrap;rounded=0;" vertex="1" parent="velXcS6_VG1nVzbx7mFF-1">
          <mxGeometry x="-110" y="715" width="180" height="17" as="geometry" />
        </mxCell>
        <mxCell id="velXcS6_VG1nVzbx7mFF-86" value="" style="group" vertex="1" connectable="0" parent="velXcS6_VG1nVzbx7mFF-1">
          <mxGeometry x="400" y="970" width="300" height="153" as="geometry" />
        </mxCell>
        <mxCell id="velXcS6_VG1nVzbx7mFF-74" value="" style="group" vertex="1" connectable="0" parent="velXcS6_VG1nVzbx7mFF-86">
          <mxGeometry x="10" width="250" height="107" as="geometry" />
        </mxCell>
        <mxCell id="velXcS6_VG1nVzbx7mFF-75" value="@id @default(autoincrement())&lt;span&gt;&lt;br&gt;&lt;/span&gt;" style="text;html=1;strokeColor=none;fillColor=none;align=center;verticalAlign=middle;whiteSpace=wrap;rounded=0;" vertex="1" parent="velXcS6_VG1nVzbx7mFF-74">
          <mxGeometry x="10" width="180" height="17" as="geometry" />
        </mxCell>
        <mxCell id="velXcS6_VG1nVzbx7mFF-78" value="DateTime @default(now())&lt;span&gt;&lt;br&gt;&lt;/span&gt;" style="text;html=1;strokeColor=none;fillColor=none;align=center;verticalAlign=middle;whiteSpace=wrap;rounded=0;" vertex="1" parent="velXcS6_VG1nVzbx7mFF-74">
          <mxGeometry x="30" y="19" width="180" height="17" as="geometry" />
        </mxCell>
        <mxCell id="velXcS6_VG1nVzbx7mFF-79" value="DateTime @updatedAt&lt;span&gt;&lt;br&gt;&lt;/span&gt;" style="text;html=1;strokeColor=none;fillColor=none;align=center;verticalAlign=middle;whiteSpace=wrap;rounded=0;" vertex="1" parent="velXcS6_VG1nVzbx7mFF-74">
          <mxGeometry x="20" y="36" width="180" height="17" as="geometry" />
        </mxCell>
        <mxCell id="velXcS6_VG1nVzbx7mFF-81" value="String&lt;span&gt;&lt;br&gt;&lt;/span&gt;" style="text;html=1;strokeColor=none;fillColor=none;align=center;verticalAlign=middle;whiteSpace=wrap;rounded=0;" vertex="1" parent="velXcS6_VG1nVzbx7mFF-74">
          <mxGeometry x="10" y="53" width="180" height="17" as="geometry" />
        </mxCell>
        <mxCell id="velXcS6_VG1nVzbx7mFF-82" value="String&lt;span&gt;&lt;br&gt;&lt;/span&gt;" style="text;html=1;strokeColor=none;fillColor=none;align=center;verticalAlign=middle;whiteSpace=wrap;rounded=0;" vertex="1" parent="velXcS6_VG1nVzbx7mFF-74">
          <mxGeometry x="10" y="63" width="180" height="17" as="geometry" />
        </mxCell>
        <mxCell id="velXcS6_VG1nVzbx7mFF-83" value="DateTime&lt;span&gt;&lt;br&gt;&lt;/span&gt;" style="text;html=1;strokeColor=none;fillColor=none;align=center;verticalAlign=middle;whiteSpace=wrap;rounded=0;" vertex="1" parent="velXcS6_VG1nVzbx7mFF-74">
          <mxGeometry x="10" y="90" width="180" height="17" as="geometry" />
        </mxCell>
        <mxCell id="velXcS6_VG1nVzbx7mFF-84" value="String&lt;span&gt;&lt;br&gt;&lt;/span&gt;" style="text;html=1;strokeColor=none;fillColor=none;align=center;verticalAlign=middle;whiteSpace=wrap;rounded=0;" vertex="1" parent="velXcS6_VG1nVzbx7mFF-86">
          <mxGeometry x="20" y="107" width="180" height="17" as="geometry" />
        </mxCell>
        <mxCell id="velXcS6_VG1nVzbx7mFF-85" value="User @relation(fields: [userId], references: [id])&lt;span&gt;&lt;br&gt;&lt;/span&gt;" style="text;html=1;strokeColor=none;fillColor=none;align=center;verticalAlign=middle;whiteSpace=wrap;rounded=0;" vertex="1" parent="velXcS6_VG1nVzbx7mFF-86">
          <mxGeometry y="136" width="300" height="17" as="geometry" />
        </mxCell>
        <mxCell id="velXcS6_VG1nVzbx7mFF-87" value="" style="group" vertex="1" connectable="0" parent="velXcS6_VG1nVzbx7mFF-1">
          <mxGeometry x="727.5" y="732" width="300" height="153" as="geometry" />
        </mxCell>
        <mxCell id="velXcS6_VG1nVzbx7mFF-88" value="" style="group" vertex="1" connectable="0" parent="velXcS6_VG1nVzbx7mFF-87">
          <mxGeometry x="10" width="282.5" height="107" as="geometry" />
        </mxCell>
        <mxCell id="velXcS6_VG1nVzbx7mFF-89" value="@id @default(autoincrement())&lt;span&gt;&lt;br&gt;&lt;/span&gt;" style="text;html=1;strokeColor=none;fillColor=none;align=center;verticalAlign=middle;whiteSpace=wrap;rounded=0;" vertex="1" parent="velXcS6_VG1nVzbx7mFF-88">
          <mxGeometry x="10" width="180" height="17" as="geometry" />
        </mxCell>
        <mxCell id="velXcS6_VG1nVzbx7mFF-90" value="DateTime @default(now())&lt;span&gt;&lt;br&gt;&lt;/span&gt;" style="text;html=1;strokeColor=none;fillColor=none;align=center;verticalAlign=middle;whiteSpace=wrap;rounded=0;" vertex="1" parent="velXcS6_VG1nVzbx7mFF-88">
          <mxGeometry x="30" y="19" width="180" height="17" as="geometry" />
        </mxCell>
        <mxCell id="velXcS6_VG1nVzbx7mFF-91" value="DateTime @updatedAt&lt;span&gt;&lt;br&gt;&lt;/span&gt;" style="text;html=1;strokeColor=none;fillColor=none;align=center;verticalAlign=middle;whiteSpace=wrap;rounded=0;" vertex="1" parent="velXcS6_VG1nVzbx7mFF-88">
          <mxGeometry x="20" y="36" width="180" height="17" as="geometry" />
        </mxCell>
        <mxCell id="velXcS6_VG1nVzbx7mFF-97" value="User @relation(fields: [userId], references: [id])&lt;span&gt;&lt;br&gt;&lt;/span&gt;" style="text;html=1;strokeColor=none;fillColor=none;align=center;verticalAlign=middle;whiteSpace=wrap;rounded=0;" vertex="1" parent="velXcS6_VG1nVzbx7mFF-88">
          <mxGeometry x="-17.5" y="45" width="300" height="17" as="geometry" />
        </mxCell>
        <mxCell id="velXcS6_VG1nVzbx7mFF-98" value="" style="group" vertex="1" connectable="0" parent="velXcS6_VG1nVzbx7mFF-1">
          <mxGeometry x="670" y="427" width="300" height="153" as="geometry" />
        </mxCell>
        <mxCell id="velXcS6_VG1nVzbx7mFF-99" value="" style="group" vertex="1" connectable="0" parent="velXcS6_VG1nVzbx7mFF-98">
          <mxGeometry x="10" width="282.5" height="107" as="geometry" />
        </mxCell>
        <mxCell id="velXcS6_VG1nVzbx7mFF-100" value="@id @default(autoincrement())&lt;span&gt;&lt;br&gt;&lt;/span&gt;" style="text;html=1;strokeColor=none;fillColor=none;align=center;verticalAlign=middle;whiteSpace=wrap;rounded=0;" vertex="1" parent="velXcS6_VG1nVzbx7mFF-99">
          <mxGeometry x="10" width="180" height="17" as="geometry" />
        </mxCell>
        <mxCell id="velXcS6_VG1nVzbx7mFF-101" value="DateTime @default(now())&lt;span&gt;&lt;br&gt;&lt;/span&gt;" style="text;html=1;strokeColor=none;fillColor=none;align=center;verticalAlign=middle;whiteSpace=wrap;rounded=0;" vertex="1" parent="velXcS6_VG1nVzbx7mFF-99">
          <mxGeometry x="30" y="19" width="180" height="17" as="geometry" />
        </mxCell>
        <mxCell id="velXcS6_VG1nVzbx7mFF-102" value="DateTime @updatedAt&lt;span&gt;&lt;br&gt;&lt;/span&gt;" style="text;html=1;strokeColor=none;fillColor=none;align=center;verticalAlign=middle;whiteSpace=wrap;rounded=0;" vertex="1" parent="velXcS6_VG1nVzbx7mFF-99">
          <mxGeometry x="20" y="36" width="180" height="17" as="geometry" />
        </mxCell>
        <mxCell id="velXcS6_VG1nVzbx7mFF-105" value="&lt;div style=&quot;text-align: left&quot;&gt;&lt;b&gt;&amp;nbsp; &amp;nbsp; &amp;nbsp; &amp;nbsp;Emotion&lt;/b&gt;&lt;/div&gt;&lt;div style=&quot;text-align: left&quot;&gt;&amp;nbsp; id&lt;/div&gt;&lt;div style=&quot;text-align: left&quot;&gt;&amp;nbsp;createdAt&lt;/div&gt;&lt;div style=&quot;text-align: left&quot;&gt;&amp;nbsp;updatedAt&lt;/div&gt;&lt;div style=&quot;text-align: left&quot;&gt;&amp;nbsp; user&lt;/div&gt;&lt;div style=&quot;text-align: left&quot;&gt;&amp;nbsp; userId&lt;/div&gt;&lt;div style=&quot;text-align: left&quot;&gt;tweet&lt;/div&gt;&lt;div style=&quot;text-align: left&quot;&gt;tweetId&lt;/div&gt;" style="text;html=1;strokeColor=none;fillColor=none;align=center;verticalAlign=middle;whiteSpace=wrap;rounded=0;" vertex="1" parent="velXcS6_VG1nVzbx7mFF-1">
          <mxGeometry x="640" y="100" width="80" height="90" as="geometry" />
        </mxCell>
      </root>
    </mxGraphModel>
  </diagram>
</mxfile>
